<svg xmlns="http://www.w3.org/2000/svg" width="790" height="105" viewBox="0 0 790 105" fill="none" role="img" aria-label="World of Taxonomy">
<title>World of Taxonomy</title>
<path d="M15.9295 74.526C14.4924 74.526 13.5598 73.8686 13.1317 72.5538L0.197835 34.4394C-0.321966 32.88 0.182546 31.8557 1.71137 31.3664C3.20962 30.9078 4.20336 31.4123 4.69258 32.88L17.2595 69.7101H15.3332L27.3498 33.568C27.7779 32.2838 28.6952 31.6416 30.1017 31.6416C31.447 31.6416 32.3185 32.299 32.716 33.6139L43.9528 69.6184H41.9348L54.2342 46.9689C54.8457 45.4095 56.623 45.0579 58.0563 46.0134C59.5851 46.5944 58.6066 46.4262 58.0563 47.9245L45.5581 72.5538C45.0689 73.8686 44.121 74.526 42.7145 74.526C41.1551 74.526 40.1766 73.8686 39.7792 72.5538L29.3678 39.2095H30.2851L18.8189 72.5538C18.5743 73.3182 18.1921 73.838 17.6723 74.1132C17.1525 74.3884 16.5716 74.526 15.9295 74.526Z" fill="#141414"></path>
<rect x="111.209" y="20.6915" width="48.7313" height="4.77767" rx="2.38883" fill="#141414"></rect>
<rect x="137.995" y="22.5458" width="51.989" height="4.86007" rx="2.43004" transform="rotate(90 137.995 22.5458)" fill="#141414"></rect>
<path d="M87.1931 14.0032C88.5118 14.0039 89.5818 15.073 89.5818 16.3918V24.592C100.828 25.4988 109.83 34.3533 110.964 45.5344H121.129C122.447 45.5349 123.518 46.6043 123.518 47.9231C123.518 49.242 122.447 50.3122 121.129 50.3127H110.964C109.831 61.495 100.829 70.3503 89.5818 71.2571V79.4573C89.5816 80.776 88.5117 81.8453 87.1931 81.8459C85.874 81.8459 84.8047 80.7764 84.8044 79.4573V71.1594C74.0101 69.8396 65.486 61.1736 64.3855 50.3127H56.615C55.2957 50.3127 54.2255 49.2423 54.2253 47.9231C54.2256 46.604 55.2958 45.5344 56.615 45.5344H64.3855C65.4869 34.6744 74.0106 26.0084 84.8044 24.6887V16.3918C84.8044 15.0726 85.8738 14.0032 87.1931 14.0032ZM87.6746 29.6223C77.5674 29.6225 69.3732 37.8165 69.3728 47.9241C69.3728 58.0319 77.5671 66.2267 87.6746 66.2268C97.7821 66.2268 105.976 58.032 105.976 47.9241C105.976 37.8164 97.7819 29.6223 87.6746 29.6223Z" fill="#141414"></path>
<path d="M77.7565 38.3846C75.3759 40.8582 73.9123 44.2205 73.9123 47.9247C73.9123 55.524 80.0726 61.6844 87.6717 61.6844C89.5306 61.6844 91.3035 61.3158 92.9211 60.6476C93.1189 59.3568 92.685 58.1182 92.5075 57.6848C92.1126 56.7223 90.809 55.0767 88.633 52.7936C88.0522 52.183 88.0895 51.7146 88.2971 50.3229L88.321 50.1656C88.462 49.2123 88.6987 48.6486 91.9065 48.1394C93.5362 47.881 93.9648 48.5324 94.5588 49.4343C94.6245 49.5342 94.6902 49.6323 94.7575 49.7305C95.3218 50.5557 95.7399 50.7444 96.3715 51.0316C96.6544 51.16 97.0075 51.3218 97.4806 51.5906C98.602 52.2315 98.602 52.9551 98.602 54.5417V54.7217C98.602 55.3952 98.5362 55.9865 98.4326 56.5003C100.309 54.1484 101.431 51.1675 101.431 47.9247C101.431 42.2504 97.9965 37.3783 93.0928 35.2741C92.1413 35.9162 90.836 36.8262 90.3806 37.4501C90.1477 37.769 89.8185 39.3966 88.7479 39.5309C88.4674 39.5661 88.091 39.5414 87.6924 39.5158C86.6234 39.4463 85.161 39.3525 84.6928 40.6234C84.3956 41.4288 84.3433 43.6153 85.3049 44.7502C85.4589 44.9315 85.4886 45.2669 85.384 45.6432C85.2466 46.1373 84.969 46.438 84.8825 46.5001C84.7167 46.4048 84.386 46.0209 84.162 45.7596C83.6222 45.1324 82.9489 44.3512 82.0784 44.1094C81.7619 44.0218 81.414 43.9493 81.0766 43.8783C80.1322 43.6803 79.0625 43.4551 78.8139 42.9248C78.6325 42.5364 78.6333 42.0015 78.634 41.4364C78.634 40.7201 78.634 39.9102 78.2831 39.1229C78.1475 38.8182 77.966 38.5758 77.7565 38.3846ZM87.6717 65.1243C78.1728 65.1243 70.4724 57.4237 70.4724 47.9247C70.4724 38.4256 78.1728 30.7251 87.6717 30.7251C97.1705 30.7251 104.871 38.4256 104.871 47.9247C104.871 57.4237 97.1705 65.1243 87.6717 65.1243Z" fill="#06B6D4"></path>
<ellipse cx="87.1116" cy="12.8984" rx="4.63916" ry="4.63925" fill="#06B6D4"></ellipse>
<ellipse cx="87.1116" cy="83.8847" rx="4.63916" ry="4.63925" fill="#06B6D4"></ellipse>
<ellipse cx="125.106" cy="47.9494" rx="4.63916" ry="4.63925" fill="#06B6D4"></ellipse>
<g transform="translate(175 0)">

<text x="0" y="74.54" font-family="GeistEmb,Inter,sans-serif" font-size="74" font-weight="400" letter-spacing="-1" word-spacing="-4" fill="#141414">World of Taxonomy</text>
</g>
<g transform="translate(-30 0)"><path d="M122.46 0L116.30 0L116.30-38.82L121.72-38.82L121.94-31.64Q123.92-38.82 131.17-38.82L131.17-38.82L134.98-38.82L134.98-32.96L131.25-32.96Q122.46-32.96 122.46-23.44L122.46-23.44L122.46 0Z" fill="#141414"></path></g>
</svg>